:version 1.10
:name ASF
:units
  mass 1
  length 1
  angle deg
:documentation
  ASF file generated by Kaydara
:root
  axis xyz
  order  tx ty tz rx ry rz
  position 0 0 0
  orientation 0 0 0
:bonedata
  begin
    id 1
    name LeftUpLegDummy
    direction 1 -2.30186e-007 -8.31532e-007
    length 2.93387
    axis 0 0 0 xyz
  end
  begin
    id 2
    name LeftUpLeg
    direction -1.82929e-007 -1 -1.48925e-009
    length 17.3336
    axis -3.48766 0.00143442 -0.000521554 xyz
    dof rx ry rz
  end
  begin
    id 3
    name LeftLeg
    direction -1.82929e-007 -1 -5.23717e-011
    length 14.9995
    axis 3.68178 -0.00654042 -0.000282425 xyz
    dof rx ry rz
  end
  begin
    id 4
    name LeftFoot
    direction 8.31532e-007 -4.54534e-011 1
    length 6.74421
    axis 1.87234e-006 4.66016e-005 -5.96866e-006 xyz
    dof rx ry rz
  end
  begin
    id 5
    name LeftToes
    direction 0.00818058 -0.00485161 0.999955
    length 3.85048
    axis 1.06247e-005 4.65869e-005 -5.96999e-006 xyz
    dof rx ry rz
  end
  begin
    id 6
    name SpineDummy
    direction -5.8607e-008 0.943407 -0.331637
    length 5.93572
    axis 0 0 0 xyz
  end
  begin
    id 7
    name Spine
    direction -1.04988e-007 0.999988 0.00495137
    length 10.1015
    axis -0.001389 0.000121417 6.61666e-006 xyz
    dof rx ry rz
  end
  begin
    id 8
    name Spine1
    direction 0 0 0
    length 0
    axis -0.001389 0.00012144 6.56766e-006 xyz
    dof rx ry rz
  end
  begin
    id 9
    name RightShoulderDummy
    direction -0.98348 0.17941 -0.0240696
    length 3.59882
    axis -0.001389 0.00012144 6.56766e-006 xyz
  end
  begin
    id 10
    name RightShoulder
    direction -0.978693 0.204882 0.0135597
    length 2.70001
    axis 0.215806 0.000203631 -0.00679732 xyz
    dof rx ry rz
  end
  begin
    id 11
    name RightArm
    direction -1 3.85509e-006 8.31394e-007
    length 10.2459
    axis -23.2009 -0.134239 -0.964098 xyz
    dof rx ry rz
  end
  begin
    id 12
    name RightForeArm
    direction -1 3.85569e-006 8.3129e-007
    length 8.16799
    axis -9.92322 0.0658061 0.17887 xyz
    dof rx ry rz
  end
  begin
    id 13
    name RightHand
    direction -0.992843 -0.0414604 0.112003
    length 5.28593
    axis -0.00960638 0.00330669 -0.185225 xyz
    dof rx ry rz
  end
  begin
    id 14
    name LeftShoulder1Dummy
    direction 0.983523 0.179172 -0.0240748
    length 3.59866
    axis -0.001389 0.00012144 6.56766e-006 xyz
  end
  begin
    id 15
    name LeftShoulder1
    direction 0.978627 0.205195 0.0135605
    length 2.70019
    axis -0.001389 0.00012144 6.57583e-006 xyz
    dof rx ry rz
  end
  begin
    id 16
    name LeftArm
    direction 1 3.51895e-006 -8.60188e-007
    length 10.2459
    axis -23.1894 0.134785 0.967513 xyz
    dof rx ry rz
  end
  begin
    id 17
    name LeftForeArm
    direction 1 3.51921e-006 -7.32029e-007
    length 8.16799
    axis -9.91835 -0.0656957 -0.177789 xyz
    dof rx ry rz
  end
  begin
    id 18
    name LeftHand
    direction 0.992938 -0.0411636 0.11126
    length 5.32135
    axis -0.00960237 -0.00340661 0.185177 xyz
    dof rx ry rz
  end
  begin
    id 19
    name HEadDummy
    direction 1.01974e-006 0.999861 -0.016675
    length 2.99946
    axis -0.001389 0.00012144 6.56766e-006 xyz
  end
  begin
    id 20
    name HEad
    direction -0.0222689 0.980941 0.193023
    length 5.12695
    axis -0.001389 0.00012144 6.56766e-006 xyz
    dof rx ry rz
  end
  begin
    id 21
    name RightUpLegDummy
    direction -1 2.30186e-007 8.31532e-007
    length 2.93387
    axis 0 0 0 xyz
  end
  begin
    id 22
    name RightUpLeg
    direction -1.82966e-007 -1 1.56832e-007
    length 17.3336
    axis -3.4909 -0.000906625 0.00028951 xyz
    dof rx ry rz
  end
  begin
    id 23
    name RightLeg
    direction -1.82786e-007 -1 -1.80317e-007
    length 14.9995
    axis 3.68513 0.0193739 -0.131021 xyz
    dof rx ry rz
  end
  begin
    id 24
    name RightFoot
    direction 8.31721e-007 -4.63324e-011 1
    length 6.74421
    axis 4.81691e-005 -0.120479 -0.188785 xyz
    dof rx ry rz
  end
  begin
    id 25
    name RightToes
    direction 0.00124746 -0.014064 0.9999
    length 3.85082
    axis 0.000481921 0.542163 -0.142575 xyz
    dof rx ry rz
  end
:hierarchy
  begin
    root LeftUpLegDummy SpineDummy RightUpLegDummy
    LeftUpLegDummy LeftUpLeg
    LeftUpLeg LeftLeg
    LeftLeg LeftFoot
    LeftFoot LeftToes
    SpineDummy Spine
    Spine Spine1
    Spine1 RightShoulderDummy LeftShoulder1Dummy HEadDummy
    RightShoulderDummy RightShoulder
    RightShoulder RightArm
    RightArm RightForeArm
    RightForeArm RightHand
    LeftShoulder1Dummy LeftShoulder1
    LeftShoulder1 LeftArm
    LeftArm LeftForeArm
    LeftForeArm LeftHand
    HEadDummy HEad
    RightUpLegDummy RightUpLeg
    RightUpLeg RightLeg
    RightLeg RightFoot
    RightFoot RightToes
  end

:SAMPLES-PER-SECOND 30
:FULLY-SPECIFIED
:DEGREES
338
root  1.13682 34.4057 -12.6166 -168.291 45.3394 -178.528
LeftUpLeg  -14.0521 7.6899 0.620535
LeftLeg  9.91178 0.864936 0.093272
LeftFoot  2.53497 0.00533855 0.119542
LeftToes  -13.8809 7.65994e-007 1.12379e-007
Spine  4.9909 4.70685 -1.44777
Spine1  9.62107 9.97466 -2.98789
RightShoulder  0.0605917 4.73861 -12.651
RightArm  15.4726 20.6346 99.6351
RightForeArm  129.418 57.0248 163.9
RightHand  1.23163 -14.2381 -9.46325
LeftShoulder1  0.00887655 0.328038 -5.08653
LeftArm  17.4008 14.9638 -64.8958
LeftForeArm  63.7441 -79.0188 -66.4999
LeftHand  0.242547 -1.61146 -17.5626
HEad  17.1545 23.3691 -2.93568
RightUpLeg  -11.5702 -10.2085 -1.4928
RightLeg  11.3396 -7.14988 -0.956024
RightFoot  2.85357 0.0174683 -0.265646
RightToes  -31.9543 -0.156806 -0.265317
339
root  1.03477 34.4014 -12.7149 -168.481 45.8788 -178.583
LeftUpLeg  -13.844 7.83651 0.316471
LeftLeg  9.91283 1.2491 0.135225
LeftFoot  2.34668 0.00519607 0.132777
LeftToes  -13.4061 7.65994e-007 1.12379e-007
Spine  4.98753 4.71388 -1.46394
Spine1  9.60642 9.99512 -3.02479
RightShoulder  0.0606123 4.71491 -12.6286
RightArm  15.2886 20.4215 99.4676
RightForeArm  129.626 56.8805 163.989
RightHand  1.26467 -14.1804 -9.767
LeftShoulder1  0.00854144 0.342173 -5.07241
LeftArm  16.9885 15.12 -64.9184
LeftForeArm  65.4189 -79.0879 -67.3863
LeftHand  0.265623 -1.78986 -17.3176
HEad  17.52 22.7548 -2.80177
RightUpLeg  -11.6079 -10.0149 -1.84285
RightLeg  11.5709 -6.87554 -0.94774
RightFoot  2.94075 0.0174699 -0.26051
RightToes  -32.1939 -0.16003 -0.267849
340
root  0.941818 34.3947 -12.7984 -168.589 46.272 -178.58
LeftUpLeg  -13.7276 8.0552 0.0898981
LeftLeg  9.98041 1.36392 0.149378
LeftFoot  2.1334 0.0059946 0.131257
LeftToes  -13.1258 7.65994e-007 1.12379e-007
Spine  4.97177 4.65269 -1.47009
Spine1  9.57342 9.87131 -3.04131
RightShoulder  0.060607 4.53016 -12.4422
RightArm  15.3414 20.2079 99.3466
RightForeArm  129.826 56.7074 164.095
RightHand  1.28037 -14.1897 -9.88543
LeftShoulder1  0.00822786 0.420519 -5.01729
LeftArm  16.5265 15.3244 -64.9514
LeftForeArm  67.1987 -79.1433 -68.1336
LeftHand  0.278767 -1.93756 -16.8024
HEad  17.9594 21.9094 -2.54484
RightUpLeg  -11.5691 -9.78025 -2.10449
RightLeg  11.5676 -6.79201 -0.935882
RightFoot  3.13306 0.0191234 -0.279468
RightToes  -32.6647 -0.162694 -0.269793
341
root  0.845917 34.3874 -12.8735 -168.722 46.6753 -178.581
LeftUpLeg  -13.5704 8.26657 -0.135045
LeftLeg  9.9679 1.5242 0.166728
LeftFoot  1.96006 0.0066591 0.131623
LeftToes  -12.7587 7.65994e-007 1.12379e-007
Spine  4.9671 4.58524 -1.48454
Spine1  9.56087 9.73873 -3.07967
RightShoulder  0.0607662 4.43865 -12.4234
RightArm  15.1393 19.8719 99.2705
RightForeArm  130.032 56.4813 164.232
RightHand  1.29069 -14.179 -9.97547
LeftShoulder1  0.00793522 0.538905 -4.92141
LeftArm  16.2202 15.4887 -65.0144
LeftForeArm  67.4456 -79.102 -67.588
LeftHand  0.294621 -2.10277 -16.3734
HEad  18.3638 21.0943 -2.26712
RightUpLeg  -11.5471 -9.63627 -2.35234
RightLeg  11.5952 -6.59662 -0.91231
RightFoot  3.27562 0.0200064 -0.285226
RightToes  -32.8717 -0.164621 -0.271421
342
root  0.747887 34.3821 -12.9404 -168.902 47.1232 -178.611
LeftUpLeg  -13.2939 8.32351 -0.355713
LeftLeg  9.74405 1.86415 0.196819
LeftFoot  1.91776 0.00669843 0.14144
LeftToes  -12.5692 7.65994e-007 1.12379e-007
Spine  4.9774 4.5231 -1.49098
Spine1  9.57576 9.61686 -3.09949
RightShoulder  0.0609761 4.37076 -12.4149
RightArm  14.9484 19.5271 99.1973
RightForeArm  130.276 56.2154 164.39
RightHand  1.32592 -14.1126 -10.3065
LeftShoulder1  0.00766294 0.50553 -4.91369
LeftArm  15.9228 15.7802 -64.9756
LeftForeArm  67.2998 -79.0717 -67.196
LeftHand  0.273573 -1.93701 -16.5049
HEad  18.7363 20.3611 -2.15105
RightUpLeg  -11.5634 -9.5246 -2.59729
RightLeg  11.7141 -6.43571 -0.903744
RightFoot  3.40349 0.0208563 -0.289563
RightToes  -33.049 -0.166096 -0.272882
343
root  0.652971 34.3777 -12.9919 -168.99 47.4781 -178.594
LeftUpLeg  -13.1652 8.42608 -0.53099
LeftLeg  9.65206 2.07378 0.215713
LeftFoot  1.83093 0.00719745 0.143779
LeftToes  -12.3035 7.65994e-007 1.12379e-007
Spine  4.97011 4.43383 -1.48186
Spine1  9.56289 9.43274 -3.08416
RightShoulder  0.061182 4.16904 -12.3015
RightArm  14.9183 19.069 99.1742
RightForeArm  130.544 55.9121 164.568
RightHand  1.35725 -14.1369 -10.5383
LeftShoulder1  0.00741042 0.446239 -4.89567
LeftArm  15.7039 16.053 -64.9387
LeftForeArm  68.1896 -79.1222 -67.8598
LeftHand  0.274029 -1.94195 -16.4908
HEad  19.1893 19.4849 -1.99749
RightUpLeg  -11.5529 -9.41351 -2.77244
RightLeg  11.6329 -6.30583 -0.876471
RightFoot  3.60022 0.0224304 -0.304565
RightToes  -33.2735 -0.167217 -0.274147
344
root  0.553248 34.3692 -13.0313 -169.122 47.8562 -178.608
LeftUpLeg  -13.0837 8.62081 -0.7279
LeftLeg  9.6517 2.23304 0.232343
LeftFoot  1.7123 0.00770951 0.145516
LeftToes  -12.0296 7.65994e-007 1.12379e-007
Spine  4.98041 4.33957 -1.49633
Spine1  9.57815 9.24715 -3.12417
RightShoulder  0.0614259 4.15156 -12.2504
RightArm  14.7206 18.6224 99.0215
RightForeArm  130.854 55.529 164.789
RightHand  1.39411 -14.1391 -10.8311
LeftShoulder1  0.0071771 0.484745 -4.78305
LeftArm  15.3938 16.2201 -65.0386
LeftForeArm  70.3669 -79.2439 -69.5739
LeftHand  0.285073 -2.06323 -16.1554
HEad  19.6361 18.6023 -1.80136
RightUpLeg  -11.5655 -9.20792 -2.9703
RightLeg  11.6118 -6.23178 -0.863883
RightFoot  3.7563 0.0238464 -0.316856
RightToes  -33.4089 -0.168086 -0.275226
345
root  0.453512 34.3598 -13.0594 -169.259 48.3317 -178.633
LeftUpLeg  -13.0065 8.97008 -0.929387
LeftLeg  9.63823 2.30529 0.239346
LeftFoot  1.62388 0.0081745 0.147516
LeftToes  -11.8867 7.65994e-007 1.12379e-007
Spine  4.99513 4.30104 -1.51093
Spine1  9.60203 9.1739 -3.16
RightShoulder  0.0616823 4.0766 -12.1536
RightArm  14.5416 18.1817 98.8058
RightForeArm  131.312 55.1157 165.022
RightHand  1.44712 -14.0426 -11.3343
LeftShoulder1  0.00696237 0.462438 -4.67125
LeftArm  14.9896 16.327 -65.2472
LeftForeArm  71.8125 -79.3214 -70.764
LeftHand  0.289992 -2.15039 -15.7793
HEad  20.1024 17.5145 -1.65485
RightUpLeg  -11.6376 -8.94619 -3.16263
RightLeg  11.6516 -6.14959 -0.856876
RightFoot  3.86099 0.0248127 -0.322234
RightToes  -33.5677 -0.168875 -0.276129
346
root  0.352062 34.3533 -13.0835 -169.406 48.8232 -178.671
LeftUpLeg  -12.8977 9.19769 -1.12887
LeftLeg  9.5431 2.52566 0.258092
LeftFoot  1.5846 0.00859552 0.149664
LeftToes  -11.6684 7.65994e-007 1.12379e-007
Spine  5.00869 4.25167 -1.52739
Spine1  9.6239 9.07705 -3.1977
RightShoulder  0.0619408 4.05689 -12.0423
RightArm  14.3801 17.7299 98.5812
RightForeArm  132.12 54.6962 165.252
RightHand  1.52061 -13.8576 -12.0886
LeftShoulder1  0.00676565 0.448367 -4.6147
LeftArm  14.4819 16.432 -65.4702
LeftForeArm  72.1545 -79.332 -70.9352
LeftHand  0.287067 -2.15677 -15.5809
HEad  20.711 16.2459 -1.4597
RightUpLeg  -11.7079 -8.82677 -3.35697
RightLeg  11.6463 -5.84887 -0.814563
RightFoot  4.0115 0.025058 -0.316814
RightToes  -33.7038 -0.169687 -0.276866
347
root  0.249287 34.3441 -13.0992 -169.508 49.2934 -178.671
LeftUpLeg  -12.8118 9.34336 -1.2864
LeftLeg  9.44369 2.80368 0.2817
LeftFoot  1.52144 0.00897565 0.151844
LeftToes  -11.5226 7.65994e-007 1.12379e-007
Spine  5.02277 4.19754 -1.53657
Spine1  9.64874 8.96931 -3.22098
RightShoulder  0.0621839 3.9767 -11.8612
RightArm  14.2581 17.262 98.2334
RightForeArm  132.725 54.213 165.512
RightHand  1.59832 -13.6548 -12.9145
LeftShoulder1  0.00658636 0.480314 -4.56671
LeftArm  13.9366 16.5078 -65.7677
LeftForeArm  71.3856 -79.2567 -69.7714
LeftHand  0.283937 -2.14662 -15.4876
HEad  21.299 14.657 -1.23976
RightUpLeg  -11.8122 -8.72772 -3.50923
RightLeg  11.6645 -5.56286 -0.776632
RightFoot  4.14733 0.0251547 -0.309807
RightToes  -33.8051 -0.170511 -0.277542
348
root  0.145841 34.3321 -13.1066 -169.635 49.7361 -178.682
LeftUpLeg  -12.7687 9.51981 -1.43928
LeftLeg  9.43482 3.02323 0.303354
LeftFoot  1.41737 0.00931799 0.153942
LeftToes  -11.338 7.65994e-007 1.12379e-007
Spine  5.05009 4.14011 -1.55475
Spine1  9.69501 8.85994 -3.2674
RightShoulder  0.062434 3.90099 -11.6662
RightArm  13.9821 16.7787 97.7724
RightForeArm  133.451 53.6559 165.804
RightHand  1.67992 -13.4349 -13.8145
LeftShoulder1  0.00642391 0.492944 -4.53879
LeftArm  13.281 16.5862 -66.0937
LeftForeArm  69.7123 -79.067 -67.1533
LeftHand  0.294011 -2.25596 -15.2652
HEad  21.7918 12.6029 -1.00276
RightUpLeg  -11.9395 -8.58099 -3.66375
RightLeg  11.7623 -5.3379 -0.754588
RightFoot  4.22691 0.0250095 -0.300094
RightToes  -33.8135 -0.171339 -0.278246
349
root  0.0476484 34.3195 -13.1106 -169.764 50.1086 -178.69
LeftUpLeg  -12.7395 9.75916 -1.57831
LeftLeg  9.45105 3.09863 0.311824
LeftFoot  1.31211 0.0096256 0.15584
LeftToes  -11.2179 7.65994e-007 1.12379e-007
Spine  5.09174 4.06792 -1.59286
Spine1  9.76596 8.72411 -3.35729
RightShoulder  0.0632938 3.84886 -11.5241
RightArm  13.4324 16.1981 97.396
RightForeArm  134.327 53.0222 166.125
RightHand  1.74956 -13.2042 -14.6534
LeftShoulder1  0.00627772 0.524224 -4.51051
LeftArm  12.5385 16.6092 -66.3829
LeftForeArm  67.0214 -78.7355 -63.3275
LeftHand  0.300428 -2.37731 -14.8157
HEad  22.2396 9.97103 -0.642249
RightUpLeg  -12.0525 -8.54415 -3.80015
RightLeg  11.8545 -5.00177 -0.71538
RightFoot  4.29985 0.0247115 -0.280653
RightToes  -33.9614 -0.172161 -0.278969
350
root  -0.0475764 34.3125 -13.1094 -169.919 50.4756 -178.716
LeftUpLeg  -12.6794 10.0264 -1.72243
LeftLeg  9.40685 3.16276 0.315835
LeftFoot  1.31016 0.0099016 0.157424
LeftToes  -11.1821 7.65994e-007 1.12379e-007
Spine  5.11752 4.04488 -1.65467
Spine1  9.79707 8.69283 -3.49638
RightShoulder  0.0638994 3.75316 -11.2406
RightArm  12.5593 15.4399 96.844
RightForeArm  135.148 52.3204 166.471
RightHand  1.78674 -12.882 -15.351
LeftShoulder1  0.00614719 0.459515 -4.44886
LeftArm  11.6051 16.6896 -66.6844
LeftForeArm  63.0669 -78.207 -58.4542
LeftHand  0.282826 -2.33943 -14.1965
HEad  22.8325 6.66358 -0.0552086
RightUpLeg  -12.1638 -8.55267 -3.93198
RightLeg  11.9602 -4.69571 -0.680516
RightFoot  4.43252 0.024731 -0.266633
RightToes  -34.0698 -0.172968 -0.279699
351
root  -0.132723 34.3093 -13.1057 -170.02 50.8344 -178.684
LeftUpLeg  -12.6393 10.2618 -1.81239
LeftLeg  9.4041 3.26118 0.325529
LeftFoot  1.286 0.0101491 0.158579
LeftToes  -11.0344 7.65994e-007 1.12379e-007
Spine  5.14911 4.00899 -1.70687
Spine1  9.84499 8.63045 -3.61257
RightShoulder  0.0643841 3.53723 -10.809
RightArm  11.8648 14.6528 96.0451
RightForeArm  136.503 51.5745 166.824
RightHand  1.84702 -12.4153 -16.4813
LeftShoulder1  0.00603174 0.500438 -4.39108
LeftArm  10.3918 16.807 -67.0262
LeftForeArm  58.5036 -77.4444 -53.0001
LeftHand  0.265411 -2.34825 -13.3043
HEad  23.3814 2.82791 0.744707
RightUpLeg  -12.2713 -8.5574 -3.99381
RightLeg  12.049 -4.44948 -0.651912
RightFoot  4.59093 0.025127 -0.25928
RightToes  -34.2115 -0.173751 -0.280426
352
root  -0.20835 34.3091 -13.0989 -170.129 51.1638 -178.626
LeftUpLeg  -12.5679 10.4914 -1.86678
LeftLeg  9.39464 3.35136 0.333992
LeftFoot  1.28798 0.0103711 0.159188
LeftToes  -10.8336 7.65994e-007 1.12379e-007
Spine  5.18594 3.97986 -1.7517
Spine1  9.90041 8.58549 -3.71945
RightShoulder  0.0648122 3.47588 -10.3899
RightArm  10.8037 13.7266 94.8815
RightForeArm  137.428 50.6032 167.269
RightHand  1.88119 -12.0296 -17.3339
LeftShoulder1  0.00593079 0.439863 -4.24007
LeftArm  8.52506 17.0844 -67.5409
LeftForeArm  54.3868 -76.4247 -47.4177
LeftHand  0.25424 -2.42961 -12.3509
HEad  23.9417 -1.46735 1.51506
RightUpLeg  -12.3245 -8.55173 -4.01098
RightLeg  12.1014 -4.31067 -0.635625
RightFoot  4.76256 0.0260113 -0.259974
RightToes  -34.2161 -0.174501 -0.281139
